<?xml version="1.0" encoding="utf-8"?>
<!-- Svg Vector Icons : http://www.onlinewebfonts.com/icon -->
<!DOCTYPE svg PUBLIC "-//W3C//DTD SVG 1.1//EN" "http://www.w3.org/Graphics/SVG/1.1/DTD/svg11.dtd">
<svg version="1.1" xmlns="http://www.w3.org/2000/svg" xmlns:xlink="http://www.w3.org/1999/xlink" x="0px" y="0px" viewBox="0 0 1000 1000" enable-background="new 0 0 1000 1000" xml:space="preserve">
<metadata> Svg Vector Icons : http://www.onlinewebfonts.com/icon </metadata>
<g><g transform="translate(0.000000,511.000000) scale(0.100000,-0.100000)"><path d="M373.2,4349.6c-155.8-364.8-277.4-667.8-273.1-672.1c2.1-4.3,70.4,21.3,149.4,57.6c81.1,34.1,153.6,64,164.3,64s21.3-1683.4,23.5-4122.2l6.4-4124.3l4122.2-6.4c2440.9-2.1,4124.3-12.8,4124.3-23.5s-29.9-83.2-64-164.3c-36.3-78.9-61.9-145.1-57.6-149.4c6.4-6.4,1316.5,537.7,1331.4,554.8c4.3,2.1-292.3,132.3-659.3,285.9c-364.8,155.8-667.8,277.4-672.1,273.1c-4.3-4.2,21.3-70.4,57.6-149.4c34.1-81.1,64-153.6,64-164.3c0-10.7-1583.2-19.2-3904.6-19.2H881v3904.6c0,2321.4,8.5,3904.6,19.2,3904.6s83.2-29.9,164.3-64c78.9-36.3,145.1-61.9,149.4-57.6c8.5,6.4-539.8,1316.5-554.7,1333.5C654.9,5013.1,526.8,4716.6,373.2,4349.6z"/><path d="M4657.6,4055.1c-189.9-21.3-307.2-55.5-469.4-140.8c-458.7-239-727.6-680.6-731.8-1192.7c-2.1-241.1,29.9-377.7,138.7-606c70.4-145.1,119.5-215.5,260.3-354.2c288-285.9,608.1-409.7,1015.6-388.3c352.1,17.1,638,145.1,883.3,390.5c416.1,413.9,512.1,1030.6,247.5,1561.8c-200.6,399-576.1,663.6-1034.8,729.7c-81.1,10.7-153.6,19.2-160,17.1C4800.5,4072.2,4734.4,4063.7,4657.6,4055.1z M4896.5,3613.5c21.3-19.2,38.4-64,38.4-104.6c0-64,10.7-74.7,115.2-121.6c123.8-57.6,247.5-196.3,247.5-279.5c0-151.5-162.2-187.8-251.8-55.5c-59.7,89.6-119.5,125.9-211.2,128c-98.1,0-170.7-38.4-200.6-111c-21.3-53.3-19.2-70.4,17.1-119.5c23.5-32,81.1-70.4,125.9-85.4c44.8-17.1,125.9-44.8,177.1-61.9c356.3-125.9,405.4-582.5,78.9-753.2c-89.6-49.1-98.1-59.7-98.1-132.3c0-83.2-57.6-145.1-132.3-145.1c-61.9,0-123.8,79-123.8,155.8c0,61.9-10.7,74.7-76.8,98.1c-106.7,38.4-236.8,160-264.6,249.6c-44.8,134.4,66.1,224,194.2,157.9c21.3-12.8,40.5-36.3,40.5-53.3c0-42.7,100.3-115.2,181.4-130.2c87.5-14.9,149.4,2.1,202.7,61.9c91.7,98.2,19.2,226.2-151.5,271c-228.3,57.6-371.3,168.6-424.6,328.6c-57.6,175,42.7,396.9,211.2,473.7c74.7,34.1,87.5,49.1,87.5,110.9C4678.9,3622,4809.1,3694.6,4896.5,3613.5z"/><path d="M7250,2482.6c-422.5-123.7-772.4-228.3-776.7-234.7c-6.4-4.3,74.7-93.9,177.1-196.3c172.8-175,185.6-194.2,160-230.4c-53.3-72.5-1884-1969.4-1896.8-1965.1c-6.4,4.3-268.8,273.1-584.6,597.4c-623,644.4-652.9,667.8-808.6,616.6c-59.8-21.3-281.6-241.1-998.6-996.4c-507.8-533.4-936.7-990-953.7-1015.6c-44.8-61.9-40.5-213.4,4.3-283.8c83.2-128,243.2-170.7,369.1-100.3c36.3,19.2,424.6,413.9,862,876.9l798,838.5l597.4-608.1c640.1-652.9,655-663.6,808.6-612.4c51.2,17.1,309.4,271,975.1,964.4c497.1,516.3,987.9,1028.4,1088.2,1135.1l183.5,194.2l200.5-185.6c108.8-102.4,204.8-179.2,213.4-170.7c6.4,8.5,87.5,322.2,179.2,697.7c239,975.1,224,906.8,196.3,904.7C8028.7,2706.7,7672.4,2604.3,7250,2482.6z"/><path d="M7040.9,688.2l-228.3-228.3v-1884V-3306h416.1h416.1v1937.3V566.6l-177.1,177.1c-96,96-181.4,175-185.6,175C7275.6,918.7,7166.7,816.3,7040.9,688.2z"/><path d="M6185.3-199.4l-418.2-435.3v-1325v-1325h426.7h426.7v1760.3c0,968.7-4.3,1760.3-8.5,1760.3C6607.7,235.9,6415.7,39.6,6185.3-199.4z"/><path d="M3697.4-1765.5v-1519.2h426.7h426.7l-2.1,1083.9V-1119L4122-681.6l-424.6,435.3V-1765.5z"/><path d="M3070.1-715.7l-418.2-439.5v-1064.7v-1064.7h426.7h426.7v1504.2c0,827.9-4.3,1504.2-8.5,1504.2C3492.6-276.2,3300.6-474.6,3070.1-715.7z"/><path d="M5447-971.7c-66.2-66.2-175-145.1-247.5-181.4c-117.4-59.7-149.4-64-294.4-57.6l-162.2,6.4v-1049.8V-3306H5159h416.1v1226.8c0,674.2-2.1,1226.8-6.4,1226.8C5566.5-852.3,5511-905.6,5447-971.7z"/><path d="M2329.8-1492.4c-168.6-177.1-315.8-243.2-535.5-243.2h-166.4v-785.2V-3306l422.5,4.3l420.3,6.4l6.4,966.5c2.1,529.2-2.1,964.4-10.7,964.4C2455.6-1364.3,2395.9-1422,2329.8-1492.4z"/></g></g>
</svg>